<mxfile host="Electron" agent="Mozilla/5.0 (Windows NT 10.0; Win64; x64) AppleWebKit/537.36 (KHTML, like Gecko) draw.io/26.0.9 Chrome/128.0.6613.186 Electron/32.2.5 Safari/537.36" version="26.0.9">
  <diagram name="Page-1" id="vZ1Ld8vt8Oq8yNamm4Cb">
    <mxGraphModel dx="918" dy="593" grid="1" gridSize="10" guides="1" tooltips="1" connect="1" arrows="1" fold="1" page="1" pageScale="1" pageWidth="570" pageHeight="940" math="0" shadow="0">
      <root>
        <mxCell id="0" />
        <mxCell id="1" parent="0" />
        <mxCell id="UY9xunkPb94m3e9x5mqo-8" value="" style="group" parent="1" vertex="1" connectable="0">
          <mxGeometry x="140" y="310" width="300" height="110" as="geometry" />
        </mxCell>
        <mxCell id="UY9xunkPb94m3e9x5mqo-6" value="" style="shape=ext;double=1;rounded=1;whiteSpace=wrap;html=1;fillColor=#d5e8d4;strokeColor=#82b366;gradientColor=none;gradientDirection=south;container=1;" parent="UY9xunkPb94m3e9x5mqo-8" vertex="1">
          <mxGeometry width="300.00000000000006" height="110" as="geometry">
            <mxRectangle x="225" y="310" width="50" height="40" as="alternateBounds" />
          </mxGeometry>
        </mxCell>
        <mxCell id="UY9xunkPb94m3e9x5mqo-9" value="&lt;font style=&quot;font-size: 17px;&quot;&gt;Planning&lt;/font&gt;" style="text;strokeColor=none;fillColor=none;html=1;fontSize=24;fontStyle=1;verticalAlign=bottom;align=center;" parent="UY9xunkPb94m3e9x5mqo-6" vertex="1">
          <mxGeometry x="29.729729729729733" y="5.13" width="226.7702702702703" height="23.87" as="geometry" />
        </mxCell>
        <mxCell id="UY9xunkPb94m3e9x5mqo-15" value="&lt;div&gt;&lt;font style=&quot;font-size: 13px;&quot;&gt;&lt;font style=&quot;&quot;&gt;&amp;nbsp;• Attackers define their goals and objectives.&lt;/font&gt;&lt;br&gt;&lt;/font&gt;&lt;/div&gt;&lt;div&gt;&lt;font style=&quot;&quot;&gt;&lt;font style=&quot;font-size: 13px;&quot;&gt;&lt;span style=&quot;background-color: transparent; color: light-dark(rgb(0, 0, 0), rgb(255, 255, 255));&quot;&gt;&amp;nbsp;•&amp;nbsp;&lt;/span&gt;Choose the type of attack.&lt;br&gt;&lt;/font&gt;&lt;/font&gt;&lt;/div&gt;&lt;div&gt;&lt;font style=&quot;&quot;&gt;&lt;font style=&quot;&quot;&gt;&lt;font style=&quot;font-size: 13px;&quot;&gt;&lt;span style=&quot;background-color: transparent; color: light-dark(rgb(0, 0, 0), rgb(255, 255, 255));&quot;&gt;&amp;nbsp;•&amp;nbsp;&lt;/span&gt;Identify resources and tools needed for the attack.&lt;/font&gt;&lt;br&gt;&lt;/font&gt;&lt;/font&gt;&lt;/div&gt;" style="text;html=1;align=left;verticalAlign=top;whiteSpace=wrap;rounded=0;" parent="UY9xunkPb94m3e9x5mqo-6" vertex="1">
          <mxGeometry x="14.984375000000004" y="29" width="265.625" height="70" as="geometry" />
        </mxCell>
        <mxCell id="UY9xunkPb94m3e9x5mqo-7" value="" style="endArrow=none;html=1;rounded=0;fillColor=#d5e8d4;strokeColor=#82b366;exitX=0;exitY=0.25;exitDx=0;exitDy=0;entryX=1;entryY=0.25;entryDx=0;entryDy=0;" parent="UY9xunkPb94m3e9x5mqo-8" source="UY9xunkPb94m3e9x5mqo-6" target="UY9xunkPb94m3e9x5mqo-6" edge="1">
          <mxGeometry width="50" height="50" relative="1" as="geometry">
            <mxPoint x="73.64583333333336" y="82.5" as="sourcePoint" />
            <mxPoint x="178.85416666666674" y="13.75" as="targetPoint" />
          </mxGeometry>
        </mxCell>
        <mxCell id="UY9xunkPb94m3e9x5mqo-17" value="" style="group" parent="1" vertex="1" connectable="0">
          <mxGeometry x="499" y="305" width="261" height="120" as="geometry" />
        </mxCell>
        <mxCell id="UY9xunkPb94m3e9x5mqo-18" value="&lt;div style=&quot;&quot;&gt;&lt;br&gt;&lt;/div&gt;" style="shape=ext;double=1;rounded=1;whiteSpace=wrap;html=1;fillColor=#d5e8d4;strokeColor=#82b366;gradientColor=none;gradientDirection=south;container=1;" parent="UY9xunkPb94m3e9x5mqo-17" vertex="1">
          <mxGeometry width="261" height="119.99999999999999" as="geometry">
            <mxRectangle x="225" y="310" width="50" height="40" as="alternateBounds" />
          </mxGeometry>
        </mxCell>
        <mxCell id="UY9xunkPb94m3e9x5mqo-19" value="&lt;font style=&quot;font-size: 17px;&quot;&gt;Reconnaissance&lt;/font&gt;" style="text;strokeColor=none;fillColor=none;html=1;fontSize=24;fontStyle=1;verticalAlign=bottom;align=center;" parent="UY9xunkPb94m3e9x5mqo-18" vertex="1">
          <mxGeometry x="31.302364864864867" y="4.505454545454545" width="197.2901351351352" height="26.04" as="geometry" />
        </mxCell>
        <mxCell id="UY9xunkPb94m3e9x5mqo-20" value="&lt;div&gt;&lt;font style=&quot;font-size: 13px;&quot;&gt;&lt;font style=&quot;&quot;&gt;&lt;font style=&quot;&quot;&gt;&amp;nbsp;• Gather information about the&amp;nbsp;&lt;/font&gt;&lt;/font&gt;&lt;span style=&quot;background-color: transparent; color: light-dark(rgb(0, 0, 0), rgb(255, 255, 255));&quot;&gt;target.&lt;/span&gt;&lt;/font&gt;&lt;/div&gt;&lt;div&gt;&lt;font style=&quot;&quot;&gt;&lt;font style=&quot;font-size: 13px;&quot;&gt;&lt;span style=&quot;background-color: transparent; color: light-dark(rgb(0, 0, 0), rgb(255, 255, 255));&quot;&gt;&amp;nbsp;•&lt;/span&gt;&lt;font style=&quot;&quot;&gt;&lt;span style=&quot;background-color: transparent; color: light-dark(rgb(0, 0, 0), rgb(255, 255, 255));&quot;&gt;&amp;nbsp;Use&lt;/span&gt;&lt;span style=&quot;background-color: transparent; color: light-dark(rgb(0, 0, 0), rgb(255, 255, 255));&quot;&gt;&lt;font style=&quot;&quot;&gt;&amp;nbsp;t&lt;/font&gt;&lt;font style=&quot;&quot;&gt;ools like scanning software, social engineering, OSINT.&lt;/font&gt;&lt;/span&gt;&lt;/font&gt;&lt;br&gt;&lt;/font&gt;&lt;/font&gt;&lt;/div&gt;&lt;div&gt;&lt;font style=&quot;&quot;&gt;&lt;font style=&quot;&quot;&gt;&lt;font style=&quot;font-size: 13px;&quot;&gt;&lt;font style=&quot;&quot;&gt;&lt;span style=&quot;background-color: transparent; color: light-dark(rgb(0, 0, 0), rgb(255, 255, 255));&quot;&gt;&amp;nbsp;•&amp;nbsp;&lt;/span&gt;&lt;/font&gt;&lt;span style=&quot;background-color: transparent; color: light-dark(rgb(0, 0, 0), rgb(255, 255, 255));&quot;&gt;&lt;font style=&quot;&quot;&gt;Find vulnerabilities in the target’s defenses.&lt;/font&gt;&lt;/span&gt;&lt;/font&gt;&lt;br&gt;&lt;/font&gt;&lt;/font&gt;&lt;/div&gt;" style="text;html=1;align=left;verticalAlign=top;whiteSpace=wrap;rounded=0;" parent="UY9xunkPb94m3e9x5mqo-18" vertex="1">
          <mxGeometry x="13.036406250000004" y="31.636363636363633" width="231.09375000000003" height="76.36363636363636" as="geometry" />
        </mxCell>
        <mxCell id="UY9xunkPb94m3e9x5mqo-21" value="" style="endArrow=none;html=1;rounded=0;fillColor=#d5e8d4;strokeColor=#82b366;exitX=0;exitY=0.25;exitDx=0;exitDy=0;entryX=1;entryY=0.25;entryDx=0;entryDy=0;" parent="UY9xunkPb94m3e9x5mqo-17" source="UY9xunkPb94m3e9x5mqo-18" target="UY9xunkPb94m3e9x5mqo-18" edge="1">
          <mxGeometry width="50" height="50" relative="1" as="geometry">
            <mxPoint x="64.07187500000002" y="90" as="sourcePoint" />
            <mxPoint x="155.60312500000003" y="14.999999999999998" as="targetPoint" />
          </mxGeometry>
        </mxCell>
        <mxCell id="UY9xunkPb94m3e9x5mqo-24" value="" style="group" parent="1" vertex="1" connectable="0">
          <mxGeometry x="499" y="500" width="280" height="110" as="geometry" />
        </mxCell>
        <mxCell id="UY9xunkPb94m3e9x5mqo-25" value="&lt;div style=&quot;&quot;&gt;&lt;br&gt;&lt;/div&gt;" style="shape=ext;double=1;rounded=1;whiteSpace=wrap;html=1;fillColor=#d5e8d4;strokeColor=#82b366;gradientColor=none;gradientDirection=south;container=1;" parent="UY9xunkPb94m3e9x5mqo-24" vertex="1">
          <mxGeometry width="270" height="110" as="geometry">
            <mxRectangle x="225" y="310" width="50" height="40" as="alternateBounds" />
          </mxGeometry>
        </mxCell>
        <mxCell id="UY9xunkPb94m3e9x5mqo-26" value="&lt;font style=&quot;font-size: 17px;&quot;&gt;Exploitation&lt;/font&gt;" style="text;strokeColor=none;fillColor=none;html=1;fontSize=24;fontStyle=1;verticalAlign=bottom;align=center;" parent="UY9xunkPb94m3e9x5mqo-25" vertex="1">
          <mxGeometry x="30.975506756756754" y="5.13" width="204.09324324324328" height="23.87" as="geometry" />
        </mxCell>
        <mxCell id="UY9xunkPb94m3e9x5mqo-27" value="&lt;div&gt;&lt;font style=&quot;font-size: 13px;&quot;&gt;&lt;font style=&quot;&quot;&gt;&amp;nbsp;• Take advantage of vulnerabilities found during reconnaissance.&lt;/font&gt;&lt;br&gt;&lt;/font&gt;&lt;/div&gt;&lt;div&gt;&lt;font style=&quot;font-size: 13px;&quot;&gt;&lt;font style=&quot;&quot;&gt;&lt;font style=&quot;&quot;&gt;&lt;span style=&quot;background-color: transparent; color: light-dark(rgb(0, 0, 0), rgb(255, 255, 255));&quot;&gt;&amp;nbsp;•&amp;nbsp;&lt;/span&gt;&lt;/font&gt;&lt;/font&gt;&lt;span style=&quot;background-color: transparent; color: light-dark(rgb(0, 0, 0), rgb(255, 255, 255));&quot;&gt;&lt;font style=&quot;&quot;&gt;Gain unauthorized access&lt;/font&gt;&lt;/span&gt;&lt;span style=&quot;background-color: transparent; color: light-dark(rgb(0, 0, 0), rgb(255, 255, 255));&quot;&gt;.&lt;/span&gt;&lt;/font&gt;&lt;/div&gt;&lt;div&gt;&lt;font style=&quot;font-size: 13px;&quot;&gt;&lt;font style=&quot;&quot;&gt;&lt;font style=&quot;&quot;&gt;&lt;font style=&quot;&quot;&gt;&lt;span style=&quot;background-color: transparent; color: light-dark(rgb(0, 0, 0), rgb(255, 255, 255));&quot;&gt;&amp;nbsp;•&amp;nbsp;&lt;/span&gt;&lt;/font&gt;&lt;/font&gt;&lt;/font&gt;&lt;span style=&quot;background-color: transparent; color: light-dark(rgb(0, 0, 0), rgb(255, 255, 255));&quot;&gt;&lt;font style=&quot;&quot;&gt;Deploy malicious payloads&lt;/font&gt;&lt;/span&gt;&lt;span style=&quot;background-color: transparent; color: light-dark(rgb(0, 0, 0), rgb(255, 255, 255));&quot;&gt;.&lt;/span&gt;&lt;/font&gt;&lt;/div&gt;" style="text;html=1;align=left;verticalAlign=top;whiteSpace=wrap;rounded=0;" parent="UY9xunkPb94m3e9x5mqo-25" vertex="1">
          <mxGeometry x="13.485937500000004" y="29" width="239.0625" height="70" as="geometry" />
        </mxCell>
        <mxCell id="UY9xunkPb94m3e9x5mqo-28" value="" style="endArrow=none;html=1;rounded=0;fillColor=#d5e8d4;strokeColor=#82b366;exitX=0;exitY=0.25;exitDx=0;exitDy=0;entryX=1;entryY=0.25;entryDx=0;entryDy=0;" parent="UY9xunkPb94m3e9x5mqo-24" source="UY9xunkPb94m3e9x5mqo-25" target="UY9xunkPb94m3e9x5mqo-25" edge="1">
          <mxGeometry width="50" height="50" relative="1" as="geometry">
            <mxPoint x="47.13333333333334" y="82.5" as="sourcePoint" />
            <mxPoint x="114.4666666666667" y="13.75" as="targetPoint" />
          </mxGeometry>
        </mxCell>
        <mxCell id="UY9xunkPb94m3e9x5mqo-35" value="" style="endArrow=block;html=1;rounded=0;endFill=1;exitX=1;exitY=0.5;exitDx=0;exitDy=0;entryX=0;entryY=0.5;entryDx=0;entryDy=0;fillColor=#dae8fc;strokeColor=#6c8ebf;" parent="1" source="UY9xunkPb94m3e9x5mqo-6" target="UY9xunkPb94m3e9x5mqo-18" edge="1">
          <mxGeometry width="50" height="50" relative="1" as="geometry">
            <mxPoint x="460" y="410" as="sourcePoint" />
            <mxPoint x="510" y="360" as="targetPoint" />
          </mxGeometry>
        </mxCell>
        <mxCell id="UY9xunkPb94m3e9x5mqo-43" value="&lt;font style=&quot;font-size: 17px;&quot;&gt;Replanning&lt;/font&gt;" style="text;strokeColor=none;fillColor=none;html=1;fontSize=24;fontStyle=1;verticalAlign=bottom;align=center;" parent="1" vertex="1">
          <mxGeometry x="139.997027027027" y="446" width="145.132972972973" height="23.87" as="geometry" />
        </mxCell>
        <mxCell id="UY9xunkPb94m3e9x5mqo-30" value="" style="shape=ext;double=1;rounded=1;whiteSpace=wrap;html=1;fillColor=#d5e8d4;strokeColor=#82b366;gradientColor=none;gradientDirection=south;container=1;" parent="1" vertex="1">
          <mxGeometry x="140" y="500" width="264" height="120" as="geometry">
            <mxRectangle x="225" y="310" width="50" height="40" as="alternateBounds" />
          </mxGeometry>
        </mxCell>
        <mxCell id="UY9xunkPb94m3e9x5mqo-31" value="&lt;font style=&quot;font-size: 17px;&quot;&gt;Progression&lt;/font&gt;" style="text;strokeColor=none;fillColor=none;html=1;fontSize=24;fontStyle=1;verticalAlign=bottom;align=center;" parent="UY9xunkPb94m3e9x5mqo-30" vertex="1">
          <mxGeometry x="32.222162162162164" y="2.996363636363636" width="199.55783783783784" height="26.04" as="geometry" />
        </mxCell>
        <mxCell id="UY9xunkPb94m3e9x5mqo-32" value="&lt;div&gt;&lt;font style=&quot;font-size: 13px;&quot;&gt;&lt;font style=&quot;&quot;&gt;&lt;font style=&quot;&quot;&gt;&amp;nbsp;&lt;/font&gt;&lt;/font&gt;&lt;span style=&quot;background-color: transparent; color: light-dark(rgb(0, 0, 0), rgb(255, 255, 255));&quot;&gt;•&amp;nbsp;&lt;/span&gt;&lt;span style=&quot;background-color: transparent; color: light-dark(rgb(0, 0, 0), rgb(255, 255, 255));&quot;&gt;Expand control within the target’s network to spread the malware even more and steal as much data as possible.&lt;/span&gt;&lt;/font&gt;&lt;/div&gt;&lt;div&gt;&lt;font style=&quot;font-size: 13px;&quot;&gt;&lt;font style=&quot;&quot;&gt;&lt;font style=&quot;&quot;&gt;&lt;font style=&quot;&quot;&gt;&lt;span style=&quot;background-color: transparent; color: light-dark(rgb(0, 0, 0), rgb(255, 255, 255));&quot;&gt;&amp;nbsp;•&amp;nbsp;&lt;/span&gt;&lt;/font&gt;&lt;/font&gt;&lt;/font&gt;&lt;span style=&quot;background-color: transparent; color: light-dark(rgb(0, 0, 0), rgb(255, 255, 255));&quot;&gt;&lt;font style=&quot;&quot;&gt;Achieve the ultimate goal&lt;/font&gt;&lt;/span&gt;&lt;span style=&quot;background-color: transparent; color: light-dark(rgb(0, 0, 0), rgb(255, 255, 255));&quot;&gt;.&lt;/span&gt;&lt;/font&gt;&lt;/div&gt;" style="text;html=1;align=left;verticalAlign=top;whiteSpace=wrap;rounded=0;" parent="UY9xunkPb94m3e9x5mqo-30" vertex="1">
          <mxGeometry x="14.57" y="31.64" width="233.75" height="88.36" as="geometry" />
        </mxCell>
        <mxCell id="UY9xunkPb94m3e9x5mqo-33" value="" style="endArrow=none;html=1;rounded=0;fillColor=#d5e8d4;strokeColor=#82b366;exitX=0;exitY=0.25;exitDx=0;exitDy=0;entryX=1;entryY=0.25;entryDx=0;entryDy=0;" parent="1" source="UY9xunkPb94m3e9x5mqo-30" target="UY9xunkPb94m3e9x5mqo-30" edge="1">
          <mxGeometry width="50" height="50" relative="1" as="geometry">
            <mxPoint x="1138.5340277777777" y="392.5" as="sourcePoint" />
            <mxPoint x="1213.5826388888888" y="323.75" as="targetPoint" />
          </mxGeometry>
        </mxCell>
        <mxCell id="M9Qx5A_Kw0Ca2yjle4P--3" value="" style="endArrow=block;html=1;rounded=0;endFill=1;entryX=0.481;entryY=-0.003;entryDx=0;entryDy=0;fillColor=#dae8fc;strokeColor=#6c8ebf;entryPerimeter=0;exitX=0.5;exitY=1;exitDx=0;exitDy=0;fontStyle=1" edge="1" parent="1" source="UY9xunkPb94m3e9x5mqo-18" target="UY9xunkPb94m3e9x5mqo-25">
          <mxGeometry width="50" height="50" relative="1" as="geometry">
            <mxPoint x="640" y="430" as="sourcePoint" />
            <mxPoint x="659" y="450" as="targetPoint" />
          </mxGeometry>
        </mxCell>
        <mxCell id="M9Qx5A_Kw0Ca2yjle4P--4" value="" style="endArrow=block;html=1;rounded=0;endFill=1;exitX=-0.002;exitY=0.55;exitDx=0;exitDy=0;entryX=1;entryY=0.5;entryDx=0;entryDy=0;fillColor=#dae8fc;strokeColor=#6c8ebf;exitPerimeter=0;" edge="1" parent="1" source="UY9xunkPb94m3e9x5mqo-25" target="UY9xunkPb94m3e9x5mqo-30">
          <mxGeometry width="50" height="50" relative="1" as="geometry">
            <mxPoint x="489" y="540" as="sourcePoint" />
            <mxPoint x="430" y="540" as="targetPoint" />
          </mxGeometry>
        </mxCell>
        <mxCell id="M9Qx5A_Kw0Ca2yjle4P--5" value="" style="endArrow=block;html=1;rounded=0;endFill=1;entryX=0.44;entryY=1.001;entryDx=0;entryDy=0;fillColor=#dae8fc;strokeColor=#6c8ebf;entryPerimeter=0;exitX=0.5;exitY=0;exitDx=0;exitDy=0;" edge="1" parent="1" source="UY9xunkPb94m3e9x5mqo-30" target="UY9xunkPb94m3e9x5mqo-6">
          <mxGeometry width="50" height="50" relative="1" as="geometry">
            <mxPoint x="271.66" y="500" as="sourcePoint" />
            <mxPoint x="271.66" y="425" as="targetPoint" />
          </mxGeometry>
        </mxCell>
      </root>
    </mxGraphModel>
  </diagram>
</mxfile>
